<?xml version="1.0" encoding="UTF-8"?>
<svg id="Capa_2" data-name="Capa 2" xmlns="http://www.w3.org/2000/svg" xmlns:xlink="http://www.w3.org/1999/xlink" viewBox="0 0 443.3 456.02">
  <defs>
    <style>
      .cls-1 {
        stroke-linecap: round;
      }

      .cls-1, .cls-2, .cls-3, .cls-4, .cls-5 {
        stroke: #fff;
      }

      .cls-1, .cls-2, .cls-4 {
        fill: none;
        stroke-width: 8.88px;
      }

      .cls-1, .cls-3, .cls-4, .cls-5 {
        stroke-miterlimit: 10;
      }

      .cls-6 {
        fill: #ffa400;
      }

      .cls-2 {
        stroke-linejoin: round;
      }

      .cls-7 {
        fill: #004a98;
        font-family: AptosDisplay, Aptos;
        font-size: 37.7px;
      }

      .cls-3 {
        fill: url(#Degradado_sin_nombre_47);
        filter: url(#drop-shadow-2);
      }

      .cls-3, .cls-5 {
        stroke-width: 2.02px;
      }

      .cls-8 {
        letter-spacing: 0em;
      }

      .cls-9 {
        letter-spacing: -.02em;
      }

      .cls-10 {
        fill: #98989a;
      }

      .cls-11 {
        letter-spacing: -.01em;
      }

      .cls-12 {
        opacity: .95;
      }

      .cls-5 {
        fill: url(#Degradado_sin_nombre_43);
        filter: url(#drop-shadow-1);
      }

      .cls-13 {
        letter-spacing: 0em;
      }

      .cls-14 {
        letter-spacing: 0em;
      }
    </style>
    <linearGradient id="Degradado_sin_nombre_43" data-name="Degradado sin nombre 43" x1="38.65" y1="440.62" x2="443.52" y2="-40.22" gradientUnits="userSpaceOnUse">
      <stop offset="0" stop-color="#ededed"/>
      <stop offset="1" stop-color="#ededed"/>
    </linearGradient>
    <filter id="drop-shadow-1" x="0" y="0" width="402.72" height="415.68" filterUnits="userSpaceOnUse">
      <feOffset dx="-18.19" dy="-18.19"/>
      <feGaussianBlur result="blur" stdDeviation="10.77"/>
      <feFlood flood-color="#fff" flood-opacity=".15"/>
      <feComposite in2="blur" operator="in"/>
      <feComposite in="SourceGraphic"/>
    </filter>
    <linearGradient id="Degradado_sin_nombre_47" data-name="Degradado sin nombre 47" x1="81.78" y1="389.4" x2="394.78" y2="17.67" gradientUnits="userSpaceOnUse">
      <stop offset="0" stop-color="#fff"/>
      <stop offset=".75" stop-color="#ededed"/>
    </linearGradient>
    <filter id="drop-shadow-2" x="32.18" y="32.42" width="411.12" height="423.6" filterUnits="userSpaceOnUse">
      <feOffset dx="18.19" dy="18.19"/>
      <feGaussianBlur result="blur-2" stdDeviation="12.13"/>
      <feFlood flood-color="#4f6367" flood-opacity=".15"/>
      <feComposite in2="blur-2" operator="in"/>
      <feComposite in="SourceGraphic"/>
    </filter>
  </defs>
  <g id="Capa_1-2" data-name="Capa 1">
    <g>
      <g class="cls-12">
        <rect class="cls-5" x="51.55" y="51.67" width="335.76" height="348.51" rx="20.21" ry="20.21"/>
        <rect class="cls-3" x="51.55" y="51.67" width="335.76" height="348.51" rx="20.21" ry="20.21"/>
      </g>
      <text class="cls-7" transform="translate(171.46 321.08)"><tspan class="cls-9" x="0" y="0">F</tspan><tspan x="18.63" y="0">ichas</tspan><tspan x="-50.76" y="30.61">de mon</tspan><tspan class="cls-13" x="63.26" y="30.61">i</tspan><tspan class="cls-14" x="71.1" y="30.61">t</tspan><tspan class="cls-8" x="82.37" y="30.61">o</tspan><tspan class="cls-11" x="101.7" y="30.61">r</tspan><tspan x="112.91" y="30.61">eo</tspan></text>
      <g>
        <path class="cls-10" d="M367.22,132.88h0c-11.25,0-16.73-13.73-8.57-21.48l27.13-25.75v28.68c0,10.25-8.31,18.55-18.55,18.55Z"/>
        <path class="cls-10" d="M366.89,182.22h0c-11.25-.08-16.63-13.85-8.42-21.54l27.3-25.56-.2,28.68c-.07,10.25-8.44,18.49-18.68,18.42Z"/>
        <path class="cls-10" d="M366.89,231.31h0c-11.25-.08-16.63-13.85-8.42-21.54l27.3-25.56-.2,28.68c-.07,10.25-8.44,18.49-18.68,18.42Z"/>
        <path class="cls-6" d="M366.89,281.59h0c-11.25-.08-16.63-13.85-8.42-21.54l27.3-25.56-.2,28.68c-.07,10.25-8.44,18.49-18.68,18.42Z"/>
      </g>
      <g>
        <circle class="cls-6" cx="221.52" cy="183.62" r="59.77"/>
        <g>
          <polyline class="cls-4" points="210.89 159.96 187.9 159.96 187.9 205.24 245.06 205.24"/>
          <g>
            <circle class="cls-1" cx="235.28" cy="174.22" r="18.8"/>
            <line class="cls-1" x1="248.57" y1="187.51" x2="260.42" y2="199.36"/>
          </g>
          <line class="cls-2" x1="221.44" y1="205.24" x2="221.44" y2="223.31"/>
        </g>
      </g>
    </g>
  </g>
</svg>