<?xml version="1.0" encoding="UTF-8"?>
<svg id="Capa_2" data-name="Capa 2" xmlns="http://www.w3.org/2000/svg" xmlns:xlink="http://www.w3.org/1999/xlink" viewBox="0 0 443.3 456.02">
  <defs>
    <style>
      .cls-1 {
        fill: #fff;
      }

      .cls-2 {
        fill: #004a98;
        font-family: AptosDisplay, Aptos;
        font-size: 37.7px;
      }

      .cls-3 {
        fill: url(#Degradado_sin_nombre_47);
        filter: url(#drop-shadow-2);
      }

      .cls-3, .cls-4, .cls-5 {
        stroke: #fff;
      }

      .cls-3, .cls-5 {
        stroke-miterlimit: 10;
        stroke-width: 2.02px;
      }

      .cls-6 {
        letter-spacing: 0em;
      }

      .cls-4 {
        fill: none;
        stroke-linecap: round;
        stroke-linejoin: round;
        stroke-width: 8.88px;
      }

      .cls-7 {
        letter-spacing: 0em;
      }

      .cls-8 {
        fill: #98989a;
      }

      .cls-9 {
        letter-spacing: 0em;
      }

      .cls-10 {
        letter-spacing: 0em;
      }

      .cls-11 {
        letter-spacing: -.01em;
      }

      .cls-12 {
        opacity: .95;
      }

      .cls-13 {
        letter-spacing: 0em;
      }

      .cls-14 {
        letter-spacing: 0em;
      }

      .cls-15 {
        letter-spacing: 0em;
      }

      .cls-5 {
        fill: url(#Degradado_sin_nombre_43);
        filter: url(#drop-shadow-1);
      }

      .cls-16 {
        fill: #76bc21;
      }
    </style>
    <linearGradient id="Degradado_sin_nombre_43" data-name="Degradado sin nombre 43" x1="38.79" y1="440.62" x2="443.66" y2="-40.22" gradientUnits="userSpaceOnUse">
      <stop offset="0" stop-color="#ededed"/>
      <stop offset="1" stop-color="#ededed"/>
    </linearGradient>
    <filter id="drop-shadow-1" x="0" y="0" width="402.96" height="415.68" filterUnits="userSpaceOnUse">
      <feOffset dx="-18.19" dy="-18.19"/>
      <feGaussianBlur result="blur" stdDeviation="10.77"/>
      <feFlood flood-color="#fff" flood-opacity=".15"/>
      <feComposite in2="blur" operator="in"/>
      <feComposite in="SourceGraphic"/>
    </filter>
    <linearGradient id="Degradado_sin_nombre_47" data-name="Degradado sin nombre 47" x1="81.92" y1="389.4" x2="394.92" y2="17.67" gradientUnits="userSpaceOnUse">
      <stop offset="0" stop-color="#fff"/>
      <stop offset=".75" stop-color="#ededed"/>
    </linearGradient>
    <filter id="drop-shadow-2" x="32.42" y="32.42" width="410.88" height="423.6" filterUnits="userSpaceOnUse">
      <feOffset dx="18.19" dy="18.19"/>
      <feGaussianBlur result="blur-2" stdDeviation="12.13"/>
      <feFlood flood-color="#4f6367" flood-opacity=".15"/>
      <feComposite in2="blur-2" operator="in"/>
      <feComposite in="SourceGraphic"/>
    </filter>
  </defs>
  <g id="Capa_1-2" data-name="Capa 1">
    <g>
      <g class="cls-12">
        <rect class="cls-5" x="51.69" y="51.67" width="335.76" height="348.51" rx="20.21" ry="20.21"/>
        <rect class="cls-3" x="51.69" y="51.67" width="335.76" height="348.51" rx="20.21" ry="20.21"/>
      </g>
      <text class="cls-2" transform="translate(155.32 290.47)"><tspan x="0" y="0">M</tspan><tspan class="cls-10" x="28.85" y="0">a</tspan><tspan x="46.96" y="0">tric</tspan><tspan class="cls-6" x="96.62" y="0">e</tspan><tspan class="cls-9" x="115.06" y="0">s</tspan><tspan x="-45.11" y="30.61">de indi</tspan><tspan class="cls-7" x="54.83" y="30.61">c</tspan><tspan class="cls-9" x="73.19" y="30.61">ado</tspan><tspan class="cls-11" x="130.52" y="30.61">r</tspan><tspan class="cls-6" x="141.73" y="30.61">e</tspan><tspan class="cls-9" x="160.18" y="30.61">s</tspan><tspan x="-36.79" y="61.22">de </tspan><tspan class="cls-11" x="8.66" y="61.22">r</tspan><tspan class="cls-6" x="19.87" y="61.22">e</tspan><tspan class="cls-13" x="38.32" y="61.22">s</tspan><tspan x="55.55" y="61.22">u</tspan><tspan class="cls-15" x="74.62" y="61.22">l</tspan><tspan class="cls-14" x="83.44" y="61.22">t</tspan><tspan x="94.75" y="61.22">ad</tspan><tspan class="cls-13" x="132.75" y="61.22">o</tspan><tspan x="151.86" y="61.22">s</tspan></text>
      <g>
        <path class="cls-8" d="M367.36,132.88h0c-11.25,0-16.73-13.73-8.57-21.48l27.13-25.75v28.68c0,10.25-8.31,18.55-18.55,18.55Z"/>
        <path class="cls-16" d="M367.03,182.22h0c-11.25-.08-16.63-13.85-8.42-21.54l27.3-25.56-.2,28.68c-.07,10.25-8.44,18.49-18.68,18.42Z"/>
        <path class="cls-8" d="M367.03,231.31h0c-11.25-.08-16.63-13.85-8.42-21.54l27.3-25.56-.2,28.68c-.07,10.25-8.44,18.49-18.68,18.42Z"/>
        <path class="cls-8" d="M367.03,281.59h0c-11.25-.08-16.63-13.85-8.42-21.54l27.3-25.56-.2,28.68c-.07,10.25-8.44,18.49-18.68,18.42Z"/>
      </g>
      <g>
        <circle class="cls-16" cx="221.58" cy="183.62" r="59.77"/>
        <g>
          <g>
            <g>
              <line class="cls-4" x1="189.73" y1="186.66" x2="210.37" y2="164.74"/>
              <path class="cls-1" d="M195.56,192.15c-3.03,3.22-8.11,3.37-11.33.34-3.22-3.03-3.37-8.11-.34-11.33,3.03-3.22,8.11-3.37,11.33-.34s3.37,8.11.34,11.33Z"/>
              <path class="cls-1" d="M216.21,170.24c3.03-3.22,2.88-8.3-.34-11.33-3.22-3.03-8.3-2.88-11.33.34-3.03,3.22-2.88,8.3.34,11.33,3.22,3.03,8.3,2.88,11.33-.34Z"/>
            </g>
            <g>
              <line class="cls-4" x1="231.02" y1="173.77" x2="210.37" y2="164.74"/>
              <path class="cls-1" d="M234.23,166.42c4.06,1.77,5.91,6.5,4.13,10.55-1.77,4.06-6.5,5.91-10.55,4.13-4.06-1.77-5.91-6.5-4.13-10.55s6.5-5.91,10.55-4.13Z"/>
              <path class="cls-1" d="M213.58,157.4c-4.06-1.77-8.78.08-10.55,4.13s.08,8.78,4.13,10.55c4.06,1.77,8.78-.08,10.55-4.13,1.77-4.06-.08-8.78-4.13-10.55Z"/>
            </g>
            <g>
              <line class="cls-4" x1="231.02" y1="173.77" x2="251.66" y2="151.99"/>
              <path class="cls-1" d="M236.83,179.28c-3.05,3.21-8.12,3.35-11.33.3s-3.35-8.12-.3-11.33c3.05-3.21,8.12-3.35,11.33-.3,3.21,3.05,3.35,8.12.3,11.33Z"/>
              <path class="cls-1" d="M257.48,157.5c3.05-3.21,2.91-8.29-.3-11.33s-8.29-2.91-11.33.3c-3.05,3.21-2.91,8.29.3,11.33,3.21,3.05,8.29,2.91,11.33-.3Z"/>
            </g>
          </g>
          <g>
            <rect class="cls-1" x="205.93" y="194.63" width="8.88" height="22.42"/>
            <rect class="cls-1" x="185.29" y="204.91" width="8.88" height="12.14"/>
            <rect class="cls-1" x="226.58" y="187.9" width="8.88" height="29.15"/>
            <rect class="cls-1" x="247.22" y="178.93" width="8.88" height="38.11"/>
          </g>
        </g>
      </g>
    </g>
  </g>
</svg>