<?xml version="1.0" encoding="UTF-8"?>
<svg id="Capa_2" data-name="Capa 2" xmlns="http://www.w3.org/2000/svg" xmlns:xlink="http://www.w3.org/1999/xlink" viewBox="0 0 443.3 456.02">
  <defs>
    <style>
      .cls-1 {
        letter-spacing: 0em;
      }

      .cls-2 {
        fill: #fff;
      }

      .cls-3 {
        letter-spacing: 0em;
      }

      .cls-4 {
        fill: #004a98;
        font-family: AptosDisplay, Aptos;
        font-size: 37.7px;
      }

      .cls-5 {
        letter-spacing: 0em;
      }

      .cls-6 {
        fill: url(#Degradado_sin_nombre_47);
        filter: url(#drop-shadow-2);
      }

      .cls-6, .cls-7 {
        stroke: #fff;
        stroke-miterlimit: 10;
        stroke-width: 2.02px;
      }

      .cls-8 {
        fill: #98989a;
      }

      .cls-9 {
        opacity: .95;
      }

      .cls-7 {
        fill: url(#Degradado_sin_nombre_43);
        filter: url(#drop-shadow-1);
      }

      .cls-10 {
        fill: #76bc21;
      }
    </style>
    <linearGradient id="Degradado_sin_nombre_43" data-name="Degradado sin nombre 43" x1="38.75" y1="440.62" x2="443.62" y2="-40.22" gradientUnits="userSpaceOnUse">
      <stop offset="0" stop-color="#ededed"/>
      <stop offset="1" stop-color="#ededed"/>
    </linearGradient>
    <filter id="drop-shadow-1" x="0" y="0" width="402.72" height="415.68" filterUnits="userSpaceOnUse">
      <feOffset dx="-18.19" dy="-18.19"/>
      <feGaussianBlur result="blur" stdDeviation="10.77"/>
      <feFlood flood-color="#fff" flood-opacity=".15"/>
      <feComposite in2="blur" operator="in"/>
      <feComposite in="SourceGraphic"/>
    </filter>
    <linearGradient id="Degradado_sin_nombre_47" data-name="Degradado sin nombre 47" x1="81.88" y1="389.4" x2="394.88" y2="17.67" gradientUnits="userSpaceOnUse">
      <stop offset="0" stop-color="#fff"/>
      <stop offset=".75" stop-color="#ededed"/>
    </linearGradient>
    <filter id="drop-shadow-2" x="32.42" y="32.42" width="410.88" height="423.6" filterUnits="userSpaceOnUse">
      <feOffset dx="18.19" dy="18.19"/>
      <feGaussianBlur result="blur-2" stdDeviation="12.13"/>
      <feFlood flood-color="#4f6367" flood-opacity=".15"/>
      <feComposite in2="blur-2" operator="in"/>
      <feComposite in="SourceGraphic"/>
    </filter>
  </defs>
  <g id="Capa_1-2" data-name="Capa 1">
    <g>
      <g class="cls-9">
        <rect class="cls-7" x="51.65" y="51.67" width="335.76" height="348.51" rx="20.21" ry="20.21"/>
        <rect class="cls-6" x="51.65" y="51.67" width="335.76" height="348.51" rx="20.21" ry="20.21"/>
      </g>
      <text class="cls-4" transform="translate(118.55 321.08)"><tspan x="0" y="0">Norm</tspan><tspan class="cls-5" x="86.84" y="0">a</tspan><tspan x="104.96" y="0">tividad</tspan><tspan x="-7.17" y="30.61">y lineamien</tspan><tspan class="cls-1" x="165.48" y="30.61">t</tspan><tspan class="cls-3" x="176.75" y="30.61">o</tspan><tspan x="195.86" y="30.61">s</tspan></text>
      <g>
        <path class="cls-8" d="M367.32,132.88h0c-11.25,0-16.73-13.73-8.57-21.48l27.13-25.75v28.68c0,10.25-8.31,18.55-18.55,18.55Z"/>
        <path class="cls-10" d="M366.99,182.22h0c-11.25-.08-16.63-13.85-8.42-21.54l27.3-25.56-.2,28.68c-.07,10.25-8.44,18.49-18.68,18.42Z"/>
        <path class="cls-8" d="M366.99,231.31h0c-11.25-.08-16.63-13.85-8.42-21.54l27.3-25.56-.2,28.68c-.07,10.25-8.44,18.49-18.68,18.42Z"/>
        <path class="cls-8" d="M366.99,281.59h0c-11.25-.08-16.63-13.85-8.42-21.54l27.3-25.56-.2,28.68c-.07,10.25-8.44,18.49-18.68,18.42Z"/>
      </g>
      <g>
        <circle class="cls-10" cx="221.62" cy="183.62" r="59.77"/>
        <g>
          <g>
            <path class="cls-2" d="M210.88,170.83v8.74c0,1.11.9,2.02,2.02,2.02h8.66c-5.12-1.57-9.14-5.63-10.67-10.76Z"/>
            <circle class="cls-2" cx="232.88" cy="159.66" r="21.38"/>
          </g>
          <path class="cls-2" d="M212.39,188.21c-.87-1.38-2.4-2.3-4.15-2.3h-.94c-.23,0-.45.04-.67.07-.62-1.52-2.11-2.59-3.85-2.59h-.79c-.48,0-.93.1-1.35.24v-4.1c0-2.06-1.67-3.73-3.73-3.73h-.71c-2.06,0-3.73,1.67-3.73,3.73v15.65c2.07-.08,4.55,1.01,4.92,3.71.2,1.45.2,2.75.04,3.9l-.98-3.53c-.49-1.75-2.23-2.8-3.98-2.48h0c-.1.02-.21.03-.31.05l-.64.18c-1.86.52-2.94,2.44-2.42,4.3l3.47,12.47c.09.34.25.64.43.92.69,1.93,2.04,3.33,3.81,4.27v4.33c0,3.13,2.54,5.67,5.67,5.67h5.65c3.13,0,5.67-2.54,5.67-5.67v-3.04c0-.46-.05-.9-.12-1.34,2.58-1.42,4.22-3.82,4.22-7.43v-17.73c0-3.05-2.45-5.52-5.49-5.55Z"/>
        </g>
      </g>
    </g>
  </g>
</svg>