<?xml version="1.0" encoding="UTF-8"?>
<svg id="Capa_2" data-name="Capa 2" xmlns="http://www.w3.org/2000/svg" xmlns:xlink="http://www.w3.org/1999/xlink" viewBox="0 0 362.08 750.88">
  <defs>
    <style>
      .cls-1, .cls-2, .cls-3, .cls-4, .cls-5, .cls-6, .cls-7, .cls-8 {
        fill: none;
      }

      .cls-1, .cls-2, .cls-4, .cls-6, .cls-8 {
        stroke-linecap: round;
      }

      .cls-1, .cls-9, .cls-4, .cls-5, .cls-6, .cls-7, .cls-8, .cls-10 {
        stroke-miterlimit: 10;
      }

      .cls-1, .cls-4, .cls-6 {
        stroke: #d4d4d5;
      }

      .cls-1, .cls-6 {
        stroke-width: 1.98px;
      }

      .cls-2, .cls-9, .cls-3, .cls-5, .cls-7, .cls-8, .cls-10 {
        stroke: #fff;
      }

      .cls-2, .cls-3 {
        stroke-linejoin: round;
      }

      .cls-2, .cls-3, .cls-7, .cls-8 {
        stroke-width: 4.6px;
      }

      .cls-11 {
        fill: #ffa400;
      }

      .cls-12, .cls-13 {
        fill: #fff;
      }

      .cls-9 {
        fill: url(#Degradado_sin_nombre_43);
        filter: url(#drop-shadow-1);
      }

      .cls-9, .cls-10 {
        stroke-width: 1.23px;
      }

      .cls-13 {
        fill-rule: evenodd;
      }

      .cls-14 {
        fill: #dc2597;
      }

      .cls-4 {
        stroke-width: 3.3px;
      }

      .cls-5 {
        stroke-width: 3.45px;
      }

      .cls-15 {
        fill: #00a0df;
      }

      .cls-16 {
        fill: #004a98;
      }

      .cls-6 {
        stroke-dasharray: .25 4.26;
      }

      .cls-17 {
        fill: #98989a;
      }

      .cls-18 {
        fill: #d4d4d5;
      }

      .cls-19 {
        fill: #e9e9e9;
      }

      .cls-20 {
        opacity: .95;
      }

      .cls-10 {
        fill: url(#Degradado_sin_nombre_47);
        filter: url(#drop-shadow-2);
      }

      .cls-21 {
        fill: #76bc21;
      }

      .cls-22 {
        fill: #c2d500;
      }
    </style>
    <linearGradient id="Degradado_sin_nombre_43" data-name="Degradado sin nombre 43" x1="-93.44" y1="698.57" x2="518.48" y2="-28.15" gradientUnits="userSpaceOnUse">
      <stop offset="0" stop-color="#ededed"/>
      <stop offset="1" stop-color="#ededed"/>
    </linearGradient>
    <filter id="drop-shadow-1" x="0" y="0" width="337.44" height="726" filterUnits="userSpaceOnUse">
      <feOffset dx="-11.11" dy="-11.11"/>
      <feGaussianBlur result="blur" stdDeviation="6.58"/>
      <feFlood flood-color="#fff" flood-opacity=".15"/>
      <feComposite in2="blur" operator="in"/>
      <feComposite in="SourceGraphic"/>
    </filter>
    <linearGradient id="Degradado_sin_nombre_47" data-name="Degradado sin nombre 47" x1="-28.26" y1="621.17" x2="444.81" y2="59.33" gradientUnits="userSpaceOnUse">
      <stop offset="0" stop-color="#fff"/>
      <stop offset=".75" stop-color="#ededed"/>
    </linearGradient>
    <filter id="drop-shadow-2" x="19.84" y="19.6" width="342.24" height="731.28" filterUnits="userSpaceOnUse">
      <feOffset dx="11.11" dy="11.11"/>
      <feGaussianBlur result="blur-2" stdDeviation="7.41"/>
      <feFlood flood-color="#4f6367" flood-opacity=".15"/>
      <feComposite in2="blur-2" operator="in"/>
      <feComposite in="SourceGraphic"/>
    </filter>
  </defs>
  <g id="Capa_1-2" data-name="Capa 1">
    <g>
      <g class="cls-20">
        <rect class="cls-9" x="31.65" y="31.53" width="296.27" height="685.1" rx="12.35" ry="12.35"/>
        <rect class="cls-10" x="31.65" y="31.53" width="296.27" height="685.1" rx="12.35" ry="12.35"/>
      </g>
      <g>
        <g>
          <path class="cls-17" d="M267.3,249.13v58.73H92.33v-58.73h174.97ZM86.65,243.46v70.08h186.32v-70.08H86.65Z"/>
          <g>
            <path class="cls-16" d="M119.69,182.89s.08,0,.12,0v-8.62c0-.77.03-1.08.09-1.82.94-11.94,9.3-19.71,19.46-19.71,10.8,0,19.55,8.75,19.55,19.55v.74c3.01,1.21,5.09,2.97,7.01,4.61,2.17,1.84,4.14,3.51,7.48,4.46v-24.68h-3.62c-12.72,0-23.91-6.68-30.43-16.56-6.51,9.88-17.71,16.56-30.42,16.56h-3.63v18.15c1.78,2.76,5.99,7.32,14.38,7.32"/>
            <path class="cls-21" d="M128.05,208.94h0c-1.01,0-1.97.41-2.67,1.14l-20.08,21.27h23.83c1.92,0,3.35-1.77,2.95-3.64l-4.03-18.77Z"/>
            <path class="cls-22" d="M137.59,208.94h-3.25l4.16,19.36c.38,1.78,1.95,3.06,3.78,3.06h7.39l-9.26-20.59c-.5-1.11-1.6-1.83-2.82-1.83"/>
            <path class="cls-22" d="M150.13,208.94h-4.73l9.61,19.31c.84,1.89,2.71,3.11,4.78,3.11h13.61l-20.41-21.2c-.75-.78-1.79-1.22-2.87-1.22"/>
            <path class="cls-21" d="M161.95,182.33c-1.03-.87-1.98-1.68-3.03-2.37v19.05c0,2.31,1.87,4.18,4.18,4.18h10.32v-14.77c-5.65-1.16-8.7-3.74-11.46-6.09"/>
            <path class="cls-21" d="M119.69,189.04c-6.56,0-11.23-2.18-14.38-4.57v18.72h10.32c2.31,0,4.18-1.87,4.18-4.18v-9.97s-.08,0-.12,0"/>
            <path class="cls-12" d="M116.69,198.82h0c-1.74,0-3.14-1.41-3.14-3.14v-3.77c1.74,0,3.14,1.41,3.14,3.14v3.77Z"/>
            <path class="cls-15" d="M105.31,213.92h0c0,3.02,3.69,4.49,5.77,2.3l6.92-7.29h-7.7c-2.75,0-4.98,2.23-4.98,4.98"/>
            <path class="cls-15" d="M173.49,213.92h0c0,3.02-3.69,4.49-5.77,2.3l-6.92-7.29h7.7c2.75,0,4.98,2.23,4.98,4.98"/>
            <path class="cls-11" d="M132.44,177.96c4.16-3.02,8.87-6.44,17.72-6.44.19,0,.37,0,.56,0v-.4c0-6.27-5.08-11.35-11.35-11.35s-11.35,5.08-11.35,11.35v9.75c1.54-.83,2.94-1.84,4.43-2.92"/>
            <path class="cls-14" d="M105.31,134.23v.61h.99c4.61,0,8.76-2.43,11.61-5.63h-7.37c-2.89,0-5.23,2.14-5.23,5.03"/>
            <path class="cls-11" d="M172.43,134.84h.98v-.61c0-2.89-2.34-5.03-5.23-5.03h-7.36c2.85,3.21,7,5.63,11.61,5.63"/>
            <path class="cls-21" d="M131.24,194.99c2.08-2.19,4.86-3.41,7.81-3.42h.04c2.94,0,5.71,1.19,7.79,3.36l3.83,3.98v-21.23c-.18,0-.37,0-.56,0-6.86,0-10.22,2.44-14.11,5.27-2.3,1.67-4.78,3.47-8.04,4.68v10.77l3.23-3.41Z"/>
            <path class="cls-15" d="M139.07,197.72c-1.26,0-2.46.54-3.37,1.5l-3.77,3.97h14.36l-3.84-3.99c-.92-.95-2.11-1.48-3.36-1.48h-.01Z"/>
            <path class="cls-12" d="M116.69,179.1h0c-1.74,0-3.15-1.41-3.15-3.15v-10.58c0-1.74,1.41-3.15,3.15-3.15v16.89Z"/>
            <path class="cls-12" d="M165.29,173.58h0c-1.74,0-3.15-1.41-3.15-3.15v-8.22c1.74,0,3.15,1.41,3.15,3.15v8.22Z"/>
            <path class="cls-12" d="M162.14,198.29h0v-11.57c1.74,0,3.15,1.41,3.15,3.15v5.27c0,1.74-1.41,3.15-3.15,3.15"/>
            <path class="cls-14" d="M125.36,129.2c-3.67,6.77-10.84,11.38-19.07,11.38h-.99v11.24h2.89c1.9,0,3.77-.17,5.58-.5.21-.04.43-.09.65-.14.19-1.74,1.38-3.54,2.15-4.41.35-.4.97-.4,1.33,0,.53.61,1.26,1.76,1.73,2.87.72-.29,1.43-.6,2.13-.94.05-1.87,1.35-3.63,2.17-4.57.35-.4.97-.4,1.33,0,.37.42.84,1.02,1.25,1.71.35-.25.69-.51,1.01-.77,5.04-4,8.82-9.53,10.61-15.9h-12.75Z"/>
            <path class="cls-11" d="M153.43,129.2c3.67,6.77,10.84,11.38,19.07,11.38h.99v11.24h-2.89c-1.9,0-3.77-.17-5.58-.5-.21-.04-.43-.09-.65-.14-.19-1.74-1.38-3.54-2.15-4.41-.35-.4-.97-.4-1.33,0-.53.61-1.26,1.76-1.73,2.87-.72-.29-1.43-.6-2.13-.94-.05-1.87-1.35-3.63-2.17-4.57-.35-.4-.97-.4-1.33,0-.37.42-.84,1.02-1.25,1.71-.35-.25-.69-.51-1.01-.77-5.04-4-8.82-9.53-10.61-15.9h12.75Z"/>
            <path class="cls-16" d="M186.16,220.98c-.56.13-1.16.24-1.75.24-2.48,0-4.21-1.24-4.21-3.83s1.6-4.1,4.21-4.1c.51,0,1.18.1,1.74.32l-.11,1.3c-.58-.33-1.11-.41-1.66-.41-1.58,0-2.57,1.21-2.57,2.78s.97,2.74,2.6,2.74c.6,0,1.32-.13,1.68-.32l.07,1.29Z"/>
            <path class="cls-16" d="M186.9,213h1.47v1.41h-1.47v-1.41ZM186.9,215.44h1.47v5.66h-1.47v-5.66Z"/>
            <path class="cls-16" d="M194.79,221.09h-1.4v-.77h-.02c-.45.55-1.09.9-1.86.9-1.34,0-1.92-.94-1.92-2.22v-3.57h1.47v3.02c0,.69.01,1.63.96,1.63,1.07,0,1.3-1.15,1.3-1.88v-2.77h1.47v5.66Z"/>
            <path class="cls-16" d="M199.87,220.46h-.02c-.44.55-1.04.77-1.74.77-1.74,0-2.37-1.43-2.37-2.98s.64-2.94,2.37-2.94c.74,0,1.25.25,1.69.79h.02v-3.24h1.47v8.24h-1.43v-.64ZM198.52,220.08c.98,0,1.3-1.03,1.3-1.83s-.37-1.8-1.32-1.8-1.22,1.04-1.22,1.8.27,1.83,1.24,1.83"/>
            <path class="cls-16" d="M202.79,215.73c.57-.26,1.34-.43,1.97-.43,1.72,0,2.44.71,2.44,2.38v.72c0,.57.01,1,.02,1.42.01.43.03.82.07,1.26h-1.3c-.05-.3-.05-.67-.07-.85h-.02c-.34.63-1.08.98-1.75.98-1,0-1.98-.6-1.98-1.68,0-.85.41-1.34.97-1.62.56-.27,1.29-.33,1.9-.33h.81c0-.91-.41-1.22-1.27-1.22-.63,0-1.25.24-1.75.62l-.04-1.26ZM204.51,220.15c.45,0,.8-.2,1.03-.51.24-.32.31-.73.31-1.16h-.64c-.66,0-1.64.11-1.64.98,0,.48.41.69.93.69"/>
            <path class="cls-16" d="M212.19,220.46h-.02c-.44.55-1.04.77-1.74.77-1.74,0-2.37-1.43-2.37-2.98s.64-2.94,2.37-2.94c.74,0,1.25.25,1.69.79h.02v-3.24h1.47v8.24h-1.43v-.64ZM210.84,220.08c.98,0,1.3-1.03,1.3-1.83s-.37-1.8-1.32-1.8-1.22,1.04-1.22,1.8.27,1.83,1.24,1.83"/>
            <path class="cls-16" d="M221.62,220.46h-.02c-.44.55-1.04.77-1.74.77-1.74,0-2.37-1.43-2.37-2.98s.64-2.94,2.37-2.94c.74,0,1.25.25,1.69.79h.02v-3.24h1.47v8.24h-1.43v-.64ZM220.27,220.08c.98,0,1.3-1.03,1.3-1.83s-.37-1.8-1.32-1.8-1.22,1.04-1.22,1.8.27,1.83,1.24,1.83"/>
            <path class="cls-16" d="M228.88,220.78c-.54.3-1.15.45-1.94.45-1.87,0-2.96-1.08-2.96-2.93,0-1.64.87-2.99,2.63-2.99,2.1,0,2.69,1.44,2.69,3.42h-3.91c.07.91.7,1.43,1.62,1.43.71,0,1.33-.26,1.88-.57v1.2ZM227.89,217.71c-.04-.71-.37-1.33-1.2-1.33s-1.24.57-1.31,1.33h2.5Z"/>
            <path class="cls-17" d="M245.84,231.37c-1.02-1.18-2.14-2.55-2.92-2.55-.52,0-.73.36-.73.82,0,.5.19,1.16.4,1.52l-1.21.06c-.3-.83-.34-1.38-.34-1.72,0-1.3.55-2.23,1.71-2.23s2.27,1.22,2.74,1.77l.36.42v-2.3h1.1v4.2h-1.11Z"/>
            <path class="cls-17" d="M244.04,226.47c-1.51,0-3-.33-3-2.25s1.5-2.25,3-2.25,3,.33,3,2.25-1.5,2.25-3,2.25M244.04,223.46c-.92,0-1.95.06-1.95.76s1.03.76,1.95.76,1.95-.06,1.95-.76-1.03-.76-1.95-.76"/>
            <path class="cls-17" d="M245.84,221.42c-1.02-1.18-2.14-2.55-2.92-2.55-.52,0-.73.36-.73.82,0,.5.19,1.16.4,1.52l-1.21.06c-.3-.83-.34-1.38-.34-1.72,0-1.3.55-2.23,1.71-2.23s2.27,1.22,2.74,1.77l.36.42v-2.3h1.1v4.2h-1.11Z"/>
            <path class="cls-17" d="M245.84,214.04v2.6h-1.23l-3.47-2.33v-1.71h3.65v-.82h1.05v.82h1.11v1.45h-1.11ZM242.34,213.94v.02l2.45,1.58v-1.6h-2.45Z"/>
            <path class="cls-17" d="M253.88,231.4c-1.02-1.18-2.14-2.55-2.92-2.55-.52,0-.73.36-.73.82,0,.5.19,1.16.4,1.52l-1.21.06c-.3-.83-.34-1.38-.34-1.72,0-1.3.55-2.23,1.71-2.23s2.27,1.22,2.74,1.77l.36.42v-2.3h1.1v4.2h-1.11Z"/>
            <path class="cls-17" d="M252.09,226.5c-1.51,0-3-.33-3-2.25s1.5-2.25,3-2.25,3,.33,3,2.25-1.5,2.25-3,2.25M252.09,223.49c-.92,0-1.95.06-1.95.76s1.03.76,1.95.76,1.95-.06,1.95-.76-1.03-.76-1.95-.76"/>
            <path class="cls-17" d="M253.88,221.45c-1.02-1.18-2.14-2.55-2.92-2.55-.52,0-.73.36-.73.82,0,.5.19,1.16.4,1.52l-1.21.06c-.3-.83-.34-1.38-.34-1.72,0-1.3.55-2.23,1.71-2.23s2.27,1.22,2.74,1.77l.36.42v-2.3h1.1v4.2h-1.11Z"/>
            <polygon class="cls-17" points="250.28 213.97 250.28 216.57 249.18 216.57 249.18 212.39 250.44 212.39 254.99 214.47 254.99 216.14 250.28 213.97"/>
            <path class="cls-15" d="M179.96,207.77h.53c2.47,0,4.6-1.32,5.64-3.29h-3.37c-1.55,0-2.8,1.47-2.8,3.29"/>
            <path class="cls-17" d="M191.66,204.51h63.78v3.26h-67.08s1-.27,1.86-1.1c.66-.63,1.26-1.41,1.44-2.16"/>
            <polygon class="cls-16" points="180.05 223.73 181.69 223.73 183.64 229.72 183.66 229.72 185.6 223.73 187.11 223.73 184.55 231.36 182.67 231.36 180.05 223.73"/>
            <path class="cls-16" d="M187.52,226.03c.57-.26,1.33-.43,1.96-.43,1.72,0,2.43.71,2.43,2.37v.72c0,.57.01.99.02,1.41.01.43.03.82.07,1.26h-1.29c-.05-.29-.05-.67-.07-.84h-.02c-.34.62-1.07.97-1.74.97-.99,0-1.97-.6-1.97-1.67,0-.84.4-1.33.96-1.61.56-.27,1.28-.33,1.89-.33h.81c0-.91-.4-1.21-1.27-1.21-.62,0-1.25.24-1.74.61l-.04-1.26ZM189.23,230.42c.45,0,.8-.2,1.03-.5.24-.32.31-.72.31-1.16h-.63c-.66,0-1.63.11-1.63.97,0,.48.4.69.93.69"/>
            <path class="cls-16" d="M193.08,225.73h1.39v.76h.02c.46-.64,1.08-.9,1.85-.9,1.33,0,1.91.94,1.91,2.21v3.55h-1.46v-3c0-.69-.01-1.62-.95-1.62-1.06,0-1.29,1.15-1.29,1.87v2.75h-1.46v-5.63Z"/>
            <path class="cls-16" d="M204.68,225.73v5.08c0,1.53-.61,2.97-2.97,2.97-.58,0-1.25-.09-1.94-.38l.12-1.25c.45.24,1.18.49,1.64.49,1.62,0,1.69-1.21,1.69-2.18h-.02c-.27.48-.93.9-1.75.9-1.66,0-2.29-1.33-2.29-2.84,0-1.35.7-2.92,2.38-2.92.74,0,1.32.25,1.73.9h.02v-.76h1.4ZM203.22,228.49c0-.96-.37-1.75-1.22-1.75-.99,0-1.31.92-1.31,1.78,0,.76.4,1.7,1.25,1.7.92,0,1.29-.8,1.29-1.74"/>
            <path class="cls-16" d="M211.07,231.36h-1.39v-.76h-.02c-.45.55-1.08.9-1.85.9-1.33,0-1.91-.94-1.91-2.21v-3.55h1.46v3c0,.69.01,1.62.95,1.62,1.06,0,1.29-1.15,1.29-1.87v-2.75h1.46v5.63Z"/>
            <path class="cls-16" d="M212.55,226.03c.57-.26,1.33-.43,1.96-.43,1.72,0,2.43.71,2.43,2.37v.72c0,.57.01.99.02,1.41.01.43.03.82.07,1.26h-1.29c-.05-.29-.05-.67-.07-.84h-.02c-.34.62-1.07.97-1.74.97-.99,0-1.97-.6-1.97-1.67,0-.84.4-1.33.96-1.61.56-.27,1.28-.33,1.89-.33h.81c0-.91-.4-1.21-1.27-1.21-.62,0-1.25.24-1.74.61l-.04-1.26ZM214.26,230.42c.45,0,.8-.2,1.03-.5.24-.32.31-.72.31-1.16h-.63c-.66,0-1.63.11-1.63.97,0,.48.4.69.93.69"/>
            <path class="cls-16" d="M218.13,225.73h1.3v1.28h.02c.07-.52.67-1.41,1.54-1.41.14,0,.29,0,.45.04v1.48c-.13-.08-.39-.12-.66-.12-1.19,0-1.19,1.49-1.19,2.29v2.06h-1.46v-5.63Z"/>
            <path class="cls-16" d="M225.88,230.73h-.02c-.44.55-1.04.76-1.73.76-1.73,0-2.36-1.42-2.36-2.96s.63-2.93,2.36-2.93c.73,0,1.25.25,1.68.79h.02v-3.22h1.46v8.19h-1.42v-.63ZM224.54,230.35c.97,0,1.29-1.03,1.29-1.82s-.37-1.79-1.31-1.79-1.21,1.04-1.21,1.79.27,1.82,1.23,1.82"/>
            <path class="cls-16" d="M228.54,223.31h1.46v1.4h-1.46v-1.4ZM228.54,225.73h1.46v5.63h-1.46v-5.63Z"/>
            <path class="cls-16" d="M231.51,226.03c.57-.26,1.33-.43,1.96-.43,1.72,0,2.43.71,2.43,2.37v.72c0,.57.01.99.02,1.41.01.43.03.82.07,1.26h-1.29c-.05-.29-.05-.67-.07-.84h-.02c-.34.62-1.07.97-1.74.97-.99,0-1.97-.6-1.97-1.67,0-.84.4-1.33.96-1.61.56-.27,1.28-.33,1.89-.33h.81c0-.91-.4-1.21-1.27-1.21-.62,0-1.25.24-1.74.61l-.04-1.26ZM233.22,230.42c.45,0,.8-.2,1.03-.5.24-.32.31-.72.31-1.16h-.63c-.66,0-1.63.11-1.63.97,0,.48.4.69.93.69"/>
            <path class="cls-16" d="M201.72,171.62c.27,1.95,1.76,2.71,4.14,2.71,1.33,0,2.84-.3,4.31-1.08v3.44c-1.57.62-3.36.89-5.17.89-4.66,0-8.2-2.73-8.2-7.39s3.17-7.36,7.55-7.36c5.23,0,7.12,3.71,7.12,7.91v.89h-9.75ZM207.08,168.86c0-1.62-.76-2.95-2.71-2.95-1.76,0-2.6,1.33-2.71,2.95h5.42Z"/>
            <path class="cls-16" d="M212.86,173.35c1.14.49,2.82.97,4.58.97,1,0,1.98-.16,1.98-1.14,0-2.38-6.93-.7-6.93-5.79,0-3.25,3.19-4.58,6.01-4.58,1.68,0,3.38.19,4.95.81l-.38,3.38c-1.03-.62-2.57-.95-3.79-.95-1.06,0-2.25.19-2.25.97,0,2.19,7.26.46,7.26,5.82,0,3.76-3.38,4.71-6.58,4.71-2.19,0-3.68-.22-5.12-.68l.27-3.55Z"/>
            <path class="cls-16" d="M242.59,173.35c1.14.49,2.82.97,4.58.97,1,0,1.98-.16,1.98-1.14,0-2.38-6.93-.7-6.93-5.79,0-3.25,3.19-4.58,6.01-4.58,1.68,0,3.38.19,4.95.81l-.38,3.38c-1.03-.62-2.57-.95-3.79-.95-1.06,0-2.25.19-2.25.97,0,2.19,7.26.46,7.26,5.82,0,3.76-3.38,4.71-6.58,4.71-2.19,0-3.68-.22-5.12-.68l.27-3.55Z"/>
            <path class="cls-16" d="M190.68,157.37v7.89c0,4.51-2.79,7.69-7,7.93-.77.04-3.51.02-3.51.02l-.1,4.34,3.65.04c6.92,0,12.01-5.06,12.01-12.39v-7.82h-5.04Z"/>
            <path class="cls-11" d="M180.13,168.98h.54c2.52,0,4.76-1.22,5.63-3.36h-3.31c-1.58,0-2.86,1.5-2.86,3.36"/>
            <path class="cls-14" d="M234.78,159.49c.76.08,1.44-.46,1.52-1.22.01-.14.02-.27,0-.41-.01-.19-.05-.38-.12-.56-.06-.18-.15-.35-.25-.5-.1-.16-.23-.3-.37-.42-.14-.13-.3-.24-.46-.32-.17-.09-.36-.16-.54-.2-.24-.05-.49-.07-.74-.06-.19,0-.39.03-.58.06-.19.04-.37.09-.55.15-.18.06-.35.14-.51.24-.16.09-.32.2-.47.31-.15.12-.29.24-.42.38-.13.14-.25.29-.35.44-.11.16-.2.32-.28.5-.08.18-.15.36-.2.54-.05.19-.09.39-.11.58-.08.71-.03,1.4.14,2.06.71-1.13,2.03-1.81,3.45-1.66l.84.09Z"/>
            <polygon class="cls-16" points="180.28 181 187.91 181 191.77 193.08 191.82 193.08 195.85 181 203.2 181 203.2 199.18 198.46 199.18 198.54 185.22 198.48 185.22 193.85 199.18 189.4 199.18 184.97 185.22 184.92 185.22 185.02 199.18 180.28 199.18 180.28 181"/>
            <path class="cls-16" d="M214.82,199.18c-.03-.73-.1-1.43-.1-2.14h-.05c-1.07,1.69-2.37,2.45-4.3,2.45-2.68,0-5.08-1.33-5.08-4.27,0-4.14,4.5-4.64,7-4.64.76,0,1.59.08,2.19.18-.03-1.85-1.41-2.34-3.1-2.34-1.51,0-3.02.29-4.32,1.02l-.08-3.18c1.67-.68,3.41-.96,5.42-.96,3.46,0,6.46,1.48,6.46,5.62v5.05c0,1.07.05,2.14.26,3.2h-4.3ZM211.59,196.36c1.77,0,2.89-1.61,2.89-3.2-.6-.03-1.28-.08-1.98-.08-1.59,0-2.84.49-2.84,1.8,0,.94.83,1.48,1.93,1.48"/>
            <path class="cls-16" d="M231.28,189.36c-.52-.16-1.04-.16-1.59-.16-2.19,0-3.41,1.59-3.41,4.24v5.73h-4.69v-13.57h4.27v2.5h.05c.81-1.72,1.98-2.81,4.01-2.81.55,0,1.12.08,1.59.16l-.23,3.91Z"/>
            <path class="cls-16" d="M235.71,185.61h1.94v13.57h-4.69v-10.82c0-1.52,1.23-2.75,2.75-2.75"/>
            <path class="cls-16" d="M249.17,199.18c-.03-.73-.1-1.43-.1-2.14h-.05c-1.07,1.69-2.37,2.45-4.3,2.45-2.68,0-5.08-1.33-5.08-4.27,0-4.14,4.5-4.64,7-4.64.76,0,1.59.08,2.19.18-.03-1.85-1.41-2.34-3.1-2.34-1.51,0-3.02.29-4.32,1.02l-.08-3.18c1.67-.68,3.41-.96,5.42-.96,3.46,0,6.46,1.48,6.46,5.62v5.05c0,1.07.05,2.14.26,3.2h-4.3ZM245.94,196.36c1.77,0,2.89-1.61,2.89-3.2-.6-.03-1.28-.08-1.98-.08-1.59,0-2.84.49-2.84,1.8,0,.94.83,1.48,1.93,1.48"/>
            <path class="cls-22" d="M237.08,181.03c.76.08,1.44-.46,1.52-1.22.01-.14.02-.27,0-.41-.01-.19-.05-.38-.12-.56-.06-.18-.15-.35-.25-.5-.1-.16-.23-.3-.37-.42-.14-.13-.3-.24-.46-.32-.17-.09-.36-.16-.54-.2-.24-.05-.49-.07-.74-.06-.19,0-.39.03-.58.06-.19.04-.37.09-.55.15-.18.06-.35.14-.51.24-.16.09-.32.2-.47.31-.15.12-.29.24-.42.38-.13.14-.25.29-.35.44-.11.16-.2.32-.28.5-.08.18-.15.36-.2.54-.05.19-.09.39-.11.58-.08.71-.03,1.4.14,2.06.71-1.13,2.03-1.81,3.45-1.66l.84.09Z"/>
            <path class="cls-16" d="M240.6,177.29h-4.45v-2.61h-.05c-.98,2.04-2.93,2.93-5.16,2.93-3.85,0-5.4-2.71-5.4-5.64v-5.73c0-1.7,1.38-3.09,3.09-3.09h1.8v6.84c0,2.66.92,3.55,2.25,3.55,2.01,0,3.04-1.38,3.04-4.42v-5.97h4.89v14.14Z"/>
          </g>
          <path class="cls-17" d="M268.72,116.54v128.95H90.89V116.54h177.83M272.97,112.29H86.64v137.45h186.33V112.29h0Z"/>
        </g>
        <g>
          <path class="cls-17" d="M135.88,266.08c-.61-.36-1.28-.54-2-.54-.56,0-1.06.1-1.52.28-.46.19-.85.45-1.18.79-.33.34-.58.74-.76,1.2-.18.46-.26.97-.26,1.51,0,.57.09,1.09.28,1.56.19.46.45.86.78,1.19s.72.59,1.17.77c.44.18.92.27,1.42.27.18,0,.36-.01.56-.03.19-.02.39-.06.58-.1.19-.04.37-.09.54-.15.17-.06.32-.12.44-.19l.08,1.35c-.37.16-.76.25-1.17.29-.41.04-.75.06-1.04.06-.77,0-1.47-.12-2.1-.35-.63-.24-1.17-.57-1.61-1.01-.44-.44-.79-.97-1.03-1.6-.25-.62-.37-1.32-.37-2.09s.13-1.43.38-2.04c.25-.61.61-1.13,1.07-1.57.46-.44,1-.77,1.62-1.01.62-.24,1.31-.35,2.05-.35.38,0,.75.03,1.11.09.36.06.72.17,1.07.33l-.11,1.35Z"/>
          <path class="cls-17" d="M136.87,270.63c0-.54.09-1.03.26-1.49.17-.45.42-.84.74-1.17.32-.33.7-.59,1.14-.77.44-.19.93-.28,1.48-.28s1.03.09,1.47.28c.44.19.82.44,1.14.77.31.33.56.72.73,1.17.17.45.26.95.26,1.49s-.09.99-.26,1.44c-.18.45-.42.84-.74,1.18-.31.34-.69.6-1.14.8-.44.19-.93.29-1.46.29s-1.03-.1-1.47-.29c-.44-.19-.82-.46-1.14-.8-.32-.34-.57-.73-.74-1.18-.18-.45-.26-.93-.26-1.44ZM138.26,270.63c0,.31.04.63.13.94.09.31.22.6.4.85.18.25.41.46.69.62.28.16.61.24,1,.24s.71-.08.99-.24c.28-.16.51-.36.69-.62.18-.25.31-.54.4-.85.09-.31.13-.63.13-.94,0-.33-.05-.66-.15-.98-.1-.32-.25-.6-.43-.85-.19-.25-.42-.45-.69-.6-.28-.15-.59-.22-.93-.22s-.66.07-.94.22c-.27.15-.5.35-.69.6-.19.25-.34.53-.44.85-.1.32-.15.65-.15.98Z"/>
          <path class="cls-17" d="M145.23,270.63c0-.54.09-1.03.26-1.49.17-.45.42-.84.74-1.17.32-.33.7-.59,1.14-.77.44-.19.93-.28,1.48-.28s1.03.09,1.47.28c.44.19.82.44,1.14.77.31.33.56.72.73,1.17.17.45.26.95.26,1.49s-.09.99-.26,1.44c-.18.45-.42.84-.74,1.18-.31.34-.69.6-1.14.8-.44.19-.93.29-1.46.29s-1.03-.1-1.47-.29c-.44-.19-.82-.46-1.14-.8-.32-.34-.57-.73-.74-1.18-.18-.45-.26-.93-.26-1.44ZM146.62,270.63c0,.31.04.63.13.94.09.31.22.6.4.85.18.25.41.46.69.62.28.16.61.24,1,.24s.71-.08.99-.24c.28-.16.51-.36.69-.62.18-.25.31-.54.4-.85.09-.31.13-.63.13-.94,0-.33-.05-.66-.15-.98-.1-.32-.25-.6-.43-.85-.19-.25-.42-.45-.69-.6-.28-.15-.59-.22-.93-.22s-.66.07-.94.22c-.27.15-.5.35-.69.6-.19.25-.34.53-.44.85-.1.32-.15.65-.15.98Z"/>
          <path class="cls-17" d="M154.01,267.09h1.22v1.1h.03c.18-.37.43-.67.77-.91.34-.24.7-.35,1.08-.35.19,0,.35,0,.47.03.12.02.25.04.39.07v1.17c-.12-.05-.24-.08-.37-.1-.12-.02-.24-.03-.35-.03-.58,0-1.05.26-1.4.78-.35.52-.53,1.22-.53,2.11v3.22h-1.31v-7.08Z"/>
          <path class="cls-17" d="M164.2,273.17h-.03c-.08.13-.2.26-.35.4-.15.14-.32.26-.52.37-.2.11-.43.2-.69.28-.26.07-.55.11-.86.11-.54,0-1-.11-1.38-.33-.38-.22-.7-.51-.94-.87-.25-.36-.43-.77-.54-1.23-.12-.46-.17-.93-.17-1.41s.06-.93.19-1.36c.12-.44.31-.82.57-1.15.25-.33.57-.59.95-.78.38-.19.83-.29,1.35-.29.62,0,1.12.11,1.49.33.37.22.66.49.86.81h.03v-4.31h1.31v10.42h-1.25v-1ZM160.1,270.6c0,.28.02.57.1.89.07.31.19.6.35.87.16.26.36.48.61.66.25.18.55.26.9.26.37,0,.69-.08.95-.24.26-.16.48-.37.65-.63.17-.26.29-.54.37-.85.08-.31.12-.61.12-.91,0-.33-.04-.66-.13-.98-.09-.32-.22-.6-.39-.85-.17-.25-.39-.45-.65-.6-.26-.15-.57-.23-.92-.23s-.65.08-.9.23-.45.35-.61.6c-.16.25-.27.53-.34.84-.07.31-.1.63-.09.96Z"/>
          <path class="cls-17" d="M168.91,265.51h-1.47v-1.47h1.47v1.47ZM167.52,267.09h1.31v7.08h-1.31v-7.08Z"/>
          <path class="cls-17" d="M170.9,267.09h1.26v1.12h.03c.19-.41.5-.72.93-.95.43-.23.89-.34,1.39-.34.92,0,1.59.27,2.01.81.43.54.64,1.28.64,2.24v4.21h-1.31v-3.67c0-.83-.11-1.45-.32-1.86-.21-.41-.61-.63-1.18-.67-.37,0-.69.07-.97.22-.27.14-.5.34-.67.6-.18.25-.31.56-.39.92-.08.36-.12.75-.12,1.18v3.28h-1.31v-7.08Z"/>
          <path class="cls-17" d="M179.45,267.59c.32-.19.68-.35,1.07-.48.39-.12.81-.19,1.26-.19,1.02,0,1.75.25,2.19.74.44.49.66,1.22.66,2.19v2.93c0,.41,0,.72.01.92,0,.21.02.36.04.47h-1.22v-.92h-.03c-.07.11-.18.23-.31.35-.13.12-.28.24-.47.35-.18.11-.39.2-.62.27-.24.07-.5.11-.8.11-.38,0-.73-.04-1.05-.12-.32-.08-.6-.22-.83-.4-.23-.18-.41-.41-.53-.69-.12-.28-.19-.61-.19-1,0-.44.11-.81.33-1.11.22-.3.49-.53.81-.72.32-.18.68-.31,1.07-.39.39-.08.75-.12,1.08-.12h.69c.2,0,.44,0,.69.03,0-.61-.13-1.07-.38-1.38-.25-.31-.71-.47-1.37-.47-.37,0-.74.06-1.1.19-.37.13-.68.31-.95.53l-.07-1.11ZM183.32,270.8c-.14,0-.28,0-.42-.01-.14,0-.28-.01-.42-.01-.18,0-.4.01-.68.03-.28.02-.55.08-.81.17-.26.09-.49.23-.68.41-.19.18-.28.43-.28.74,0,.19.04.35.12.49.08.14.19.26.31.36.13.1.27.17.42.22.16.05.31.08.46.08.65,0,1.14-.18,1.47-.53.33-.36.5-.8.5-1.33v-.62Z"/>
          <path class="cls-17" d="M191.16,268.28c-.25-.1-.5-.18-.74-.23-.24-.05-.47-.08-.68-.08-.36,0-.68.07-.97.22-.28.15-.52.35-.72.6s-.34.53-.44.85c-.1.32-.15.65-.15.98,0,.31.04.63.13.94.09.31.23.6.42.85.19.25.44.46.74.62.3.16.66.24,1.08.24.22,0,.46-.03.72-.1.25-.07.48-.17.69-.3l.1,1.17c-.27.13-.55.21-.84.24-.29.03-.56.05-.8.05-.54,0-1.03-.1-1.47-.29-.44-.19-.82-.46-1.14-.8-.32-.34-.57-.73-.74-1.18-.18-.45-.26-.93-.26-1.44,0-.54.09-1.03.26-1.49.17-.45.42-.84.74-1.17.32-.33.7-.59,1.14-.77.44-.19.93-.28,1.48-.28.27,0,.55.03.85.08.3.06.54.12.73.19l-.11,1.08Z"/>
          <path class="cls-17" d="M194.05,265.51h-1.47v-1.47h1.47v1.47ZM192.66,267.09h1.31v7.08h-1.31v-7.08Z"/>
          <path class="cls-17" d="M195.59,270.63c0-.54.09-1.03.26-1.49.17-.45.42-.84.74-1.17.32-.33.7-.59,1.14-.77.44-.19.93-.28,1.48-.28s1.03.09,1.47.28c.44.19.82.44,1.14.77.31.33.56.72.73,1.17.17.45.26.95.26,1.49s-.09.99-.26,1.44c-.18.45-.42.84-.74,1.18-.31.34-.69.6-1.14.8-.44.19-.93.29-1.46.29s-1.03-.1-1.47-.29c-.44-.19-.82-.46-1.14-.8-.32-.34-.57-.73-.74-1.18-.18-.45-.26-.93-.26-1.44ZM196.98,270.63c0,.31.04.63.13.94.09.31.22.6.4.85.18.25.41.46.69.62.28.16.61.24,1,.24s.71-.08.99-.24c.28-.16.51-.36.69-.62.18-.25.31-.54.4-.85.09-.31.13-.63.13-.94,0-.33-.05-.66-.15-.98-.1-.32-.25-.6-.43-.85-.19-.25-.42-.45-.69-.6-.28-.15-.59-.22-.93-.22s-.66.07-.94.22c-.27.15-.5.35-.69.6-.19.25-.34.53-.44.85-.1.32-.15.65-.15.98ZM199.52,264.1h1.51l-1.82,2h-.93l1.24-2Z"/>
          <path class="cls-17" d="M204.38,267.09h1.26v1.12h.03c.19-.41.5-.72.93-.95.43-.23.89-.34,1.39-.34.92,0,1.59.27,2.01.81.43.54.64,1.28.64,2.24v4.21h-1.31v-3.67c0-.83-.11-1.45-.32-1.86-.21-.41-.61-.63-1.18-.67-.37,0-.69.07-.97.22-.27.14-.5.34-.67.6-.18.25-.31.56-.39.92-.08.36-.12.75-.12,1.18v3.28h-1.31v-7.08Z"/>
          <path class="cls-17" d="M221.74,273.17h-.03c-.08.13-.2.26-.35.4-.15.14-.32.26-.52.37-.2.11-.43.2-.69.28-.26.07-.55.11-.86.11-.54,0-1-.11-1.38-.33-.38-.22-.7-.51-.94-.87-.25-.36-.43-.77-.54-1.23-.12-.46-.17-.93-.17-1.41s.06-.93.19-1.36c.12-.44.31-.82.57-1.15.25-.33.57-.59.95-.78.38-.19.83-.29,1.35-.29.62,0,1.12.11,1.49.33.37.22.66.49.86.81h.03v-4.31h1.31v10.42h-1.25v-1ZM217.64,270.6c0,.28.02.57.1.89.07.31.19.6.35.87.16.26.36.48.61.66.25.18.55.26.9.26.37,0,.69-.08.95-.24.26-.16.48-.37.65-.63.17-.26.29-.54.37-.85.08-.31.12-.61.12-.91,0-.33-.04-.66-.13-.98-.09-.32-.22-.6-.39-.85-.17-.25-.39-.45-.65-.6-.26-.15-.57-.23-.92-.23s-.65.08-.9.23-.45.35-.61.6c-.16.25-.27.53-.34.84-.07.31-.1.63-.09.96Z"/>
          <path class="cls-17" d="M230.49,273.88c-.13.05-.26.1-.4.15-.14.05-.29.1-.47.15-.17.05-.37.09-.6.12-.23.03-.48.05-.77.05-.63,0-1.17-.09-1.63-.28-.46-.19-.84-.44-1.14-.78-.3-.33-.53-.74-.67-1.21-.15-.47-.22-1-.22-1.57,0-.53.08-1.01.24-1.44.16-.44.38-.81.67-1.13s.64-.57,1.05-.74c.41-.18.86-.26,1.36-.26.59,0,1.09.1,1.49.31.4.2.72.48.96.84.24.36.41.78.52,1.27.11.49.16,1.02.16,1.58h-5.06c0,.35.06.67.19.96.12.29.3.53.51.74.22.21.47.37.75.49.28.12.58.17.88.17.21,0,.43-.03.66-.08.23-.05.44-.11.64-.18.2-.07.37-.15.53-.23.15-.08.27-.16.35-.22v1.31ZM229.64,269.95c0-.27-.04-.52-.12-.76-.08-.24-.19-.45-.34-.63-.15-.18-.33-.32-.56-.42-.22-.1-.47-.15-.75-.15-.32,0-.6.06-.83.18-.23.12-.42.28-.57.47-.15.19-.27.4-.35.63-.08.23-.13.46-.16.69h3.67Z"/>
          <path class="cls-17" d="M120.49,277.84h4.93c2.38,0,4.14.41,5.26,1.23,1.12.82,1.69,2.11,1.69,3.85,0,1.57-.54,2.79-1.62,3.67-1.08.88-2.59,1.32-4.53,1.32h-1.6v5.42h-4.13v-15.49ZM124.62,284.98h1.07c.36,0,.69-.03,1-.1.31-.07.58-.18.81-.36.23-.17.41-.39.54-.67.13-.27.2-.61.2-1.01s-.07-.73-.2-1c-.13-.27-.31-.48-.54-.64-.23-.16-.5-.28-.81-.34-.31-.07-.64-.1-1-.1h-1.07v4.22Z"/>
          <path class="cls-17" d="M133.9,276.68h4v16.65h-4v-16.65Z"/>
          <path class="cls-17" d="M147.89,293.33c-.01-.31-.03-.62-.06-.92-.02-.3-.03-.6-.03-.9h-.04c-.46.73-.98,1.25-1.55,1.59s-1.28.5-2.11.5c-.58,0-1.12-.07-1.64-.21-.52-.14-.98-.36-1.38-.67-.4-.3-.72-.68-.95-1.14-.24-.46-.36-1-.36-1.62,0-.89.21-1.59.63-2.11.42-.52.94-.91,1.55-1.19.61-.27,1.27-.45,1.95-.53.69-.08,1.3-.12,1.83-.12.33,0,.65.01.99.04.33.03.62.07.88.11,0-.4-.07-.72-.21-.98-.14-.25-.33-.46-.58-.61-.24-.16-.53-.26-.84-.32-.32-.06-.65-.09-1.01-.09-.65,0-1.29.07-1.91.2-.62.13-1.21.36-1.78.67l-.07-2.71c.71-.3,1.44-.51,2.2-.63.75-.13,1.56-.19,2.42-.19.74,0,1.44.09,2.11.26.67.17,1.25.44,1.75.82.5.38.9.87,1.2,1.48.3.61.44,1.35.44,2.24v4.31c0,.46.01.91.04,1.37.03.45.09.91.18,1.37h-3.66ZM143.5,289.67c0,.4.16.71.47.93.31.22.7.33,1.18.33.37,0,.71-.08,1.02-.23.31-.16.57-.36.78-.62.21-.26.37-.55.49-.88.12-.33.18-.66.18-1-.25-.01-.52-.03-.81-.04-.29-.01-.58-.02-.88-.02-.68,0-1.25.11-1.72.34-.47.23-.7.63-.7,1.19Z"/>
          <path class="cls-17" d="M153.6,281.76h3.64v2.13h.04c.4-.84.97-1.45,1.72-1.83.75-.38,1.58-.57,2.5-.57.78,0,1.46.13,2.02.39.56.26,1.02.6,1.38,1.02s.61.91.78,1.48c.16.56.24,1.14.24,1.73v7.21h-4v-5.59c0-1.08-.17-1.83-.51-2.26-.34-.43-.78-.64-1.33-.64-.83,0-1.45.29-1.86.87-.41.58-.62,1.49-.62,2.75v4.88h-4v-11.56Z"/>
          <path class="cls-17" d="M171.59,288.71c.12.8.47,1.37,1.05,1.71.58.34,1.37.51,2.34.51.55,0,1.12-.07,1.72-.2.6-.13,1.2-.36,1.81-.69v2.82c-.65.25-1.33.44-2.04.55s-1.44.18-2.2.18c-.96,0-1.85-.14-2.66-.41-.81-.27-1.52-.67-2.13-1.19-.61-.52-1.08-1.15-1.42-1.9-.34-.75-.51-1.6-.51-2.56s.16-1.8.47-2.55c.31-.75.74-1.39,1.29-1.9.55-.51,1.2-.9,1.95-1.18.75-.27,1.58-.41,2.49-.41,1.07,0,1.97.18,2.72.53.75.36,1.35.83,1.81,1.42.46.59.79,1.28,1,2.06.21.78.31,1.61.31,2.46v.73h-7.99ZM175.98,286.45c0-.67-.17-1.24-.51-1.71-.34-.47-.91-.71-1.71-.71-.73,0-1.27.24-1.62.71-.36.47-.55,1.04-.6,1.71h4.44Z"/>
          <path class="cls-17" d="M188.81,293.33c-.01-.31-.03-.62-.06-.92-.02-.3-.03-.6-.03-.9h-.04c-.46.73-.98,1.25-1.55,1.59s-1.28.5-2.11.5c-.58,0-1.12-.07-1.64-.21-.52-.14-.98-.36-1.38-.67-.4-.3-.72-.68-.95-1.14-.24-.46-.36-1-.36-1.62,0-.89.21-1.59.63-2.11.42-.52.94-.91,1.55-1.19.61-.27,1.27-.45,1.95-.53.69-.08,1.3-.12,1.83-.12.33,0,.65.01.99.04.33.03.62.07.88.11,0-.4-.07-.72-.21-.98-.14-.25-.33-.46-.58-.61-.24-.16-.53-.26-.84-.32-.32-.06-.65-.09-1.01-.09-.65,0-1.29.07-1.91.2-.62.13-1.21.36-1.78.67l-.07-2.71c.71-.3,1.44-.51,2.2-.63.75-.13,1.56-.19,2.42-.19.74,0,1.44.09,2.11.26.67.17,1.25.44,1.75.82.5.38.9.87,1.2,1.48.3.61.44,1.35.44,2.24v4.31c0,.46.01.91.04,1.37.03.45.09.91.18,1.37h-3.66ZM184.42,289.67c0,.4.16.71.47.93.31.22.7.33,1.18.33.37,0,.71-.08,1.02-.23.31-.16.57-.36.78-.62.21-.26.37-.55.49-.88.12-.33.18-.66.18-1-.25-.01-.52-.03-.81-.04-.29-.01-.58-.02-.88-.02-.68,0-1.25.11-1.72.34-.47.23-.7.63-.7,1.19Z"/>
          <path class="cls-17" d="M203.47,285.07c-.37-.22-.75-.38-1.13-.49-.38-.1-.81-.16-1.29-.16-.43,0-.83.07-1.21.22-.38.15-.7.36-.98.63s-.49.61-.64,1c-.16.39-.23.84-.23,1.34,0,.46.09.88.27,1.25.18.38.42.7.72.97.3.27.65.47,1.05.61.4.14.81.21,1.24.21.46,0,.9-.05,1.33-.14.43-.1.81-.23,1.15-.41l.09,2.97c-.5.16-1.04.29-1.61.38-.57.09-1.12.13-1.65.13-.96,0-1.85-.14-2.66-.41-.81-.27-1.52-.67-2.13-1.18-.61-.51-1.08-1.14-1.42-1.89-.34-.75-.51-1.6-.51-2.56s.17-1.82.51-2.56c.34-.75.81-1.38,1.42-1.9.61-.52,1.32-.91,2.13-1.19.81-.27,1.7-.41,2.66-.41.61,0,1.17.05,1.7.16.53.1,1.02.27,1.48.49l-.29,2.93Z"/>
          <path class="cls-17" d="M209.75,279.88h-4v-2.93h4v2.93ZM205.75,281.76h4v11.56h-4v-11.56Z"/>
          <path class="cls-17" d="M218.39,293.6c-.96,0-1.85-.14-2.66-.41-.81-.27-1.52-.67-2.13-1.18-.61-.51-1.08-1.14-1.42-1.89-.34-.75-.51-1.6-.51-2.56s.17-1.82.51-2.56c.34-.75.81-1.38,1.42-1.9.61-.52,1.32-.91,2.13-1.19.81-.27,1.7-.41,2.66-.41s1.83.14,2.65.41c.82.27,1.54.67,2.14,1.19.61.52,1.08,1.15,1.42,1.9.34.75.51,1.6.51,2.56s-.17,1.82-.51,2.56c-.34.75-.81,1.38-1.42,1.89-.61.51-1.32.9-2.14,1.18-.82.27-1.71.41-2.65.41ZM218.39,290.8c.46,0,.85-.09,1.18-.27.33-.18.6-.41.81-.71.21-.3.37-.64.47-1.03.1-.39.14-.8.14-1.23s-.05-.84-.14-1.23c-.1-.39-.25-.74-.47-1.04-.21-.3-.48-.54-.81-.72-.33-.18-.72-.27-1.18-.27s-.85.09-1.18.27c-.33.18-.6.42-.81.72-.21.3-.37.65-.47,1.04-.1.39-.14.8-.14,1.23s.05.84.14,1.23c.1.39.25.74.47,1.03.21.3.48.53.81.71.33.18.72.27,1.18.27ZM218.41,277.15h4.15l-2.86,3.2h-2.8l1.51-3.2Z"/>
          <path class="cls-17" d="M226.79,281.76h3.64v2.13h.04c.4-.84.97-1.45,1.72-1.83.75-.38,1.58-.57,2.5-.57.78,0,1.46.13,2.02.39.56.26,1.02.6,1.38,1.02s.61.91.78,1.48c.16.56.24,1.14.24,1.73v7.21h-4v-5.59c0-1.08-.17-1.83-.51-2.26-.34-.43-.78-.64-1.33-.64-.83,0-1.45.29-1.86.87-.41.58-.62,1.49-.62,2.75v4.88h-4v-11.56Z"/>
        </g>
      </g>
      <g>
        <g>
          <rect class="cls-19" x="211.01" y="441.87" width="61.96" height="61.96"/>
          <g>
            <g>
              <g>
                <line class="cls-2" x1="225.49" y1="474.42" x2="236.19" y2="463.06"/>
                <path class="cls-12" d="M228.51,477.27c-1.57,1.67-4.2,1.75-5.87.18-1.67-1.57-1.75-4.2-.18-5.87,1.57-1.67,4.2-1.75,5.87-.18,1.67,1.57,1.75,4.2.18,5.87Z"/>
                <path class="cls-12" d="M239.21,465.91c1.57-1.67,1.49-4.3-.18-5.87-1.67-1.57-4.3-1.49-5.87.18-1.57,1.67-1.49,4.3.18,5.87s4.3,1.49,5.87-.18Z"/>
              </g>
              <g>
                <line class="cls-2" x1="246.89" y1="467.74" x2="236.19" y2="463.06"/>
                <path class="cls-12" d="M248.55,463.93c2.1.92,3.06,3.37,2.14,5.47s-3.37,3.06-5.47,2.14c-2.1-.92-3.06-3.37-2.14-5.47.92-2.1,3.37-3.06,5.47-2.14Z"/>
                <path class="cls-12" d="M237.85,459.26c-2.1-.92-4.55.04-5.47,2.14-.92,2.1.04,4.55,2.14,5.47,2.1.92,4.55-.04,5.47-2.14s-.04-4.55-2.14-5.47Z"/>
              </g>
              <g>
                <line class="cls-2" x1="246.89" y1="467.74" x2="257.59" y2="456.45"/>
                <path class="cls-12" d="M249.9,470.6c-1.58,1.66-4.21,1.73-5.87.16s-1.73-4.21-.16-5.87c1.58-1.66,4.21-1.73,5.87-.16s1.73,4.21.16,5.87Z"/>
                <path class="cls-12" d="M260.6,459.31c1.58-1.66,1.51-4.29-.16-5.87s-4.29-1.51-5.87.16c-1.58,1.66-1.51,4.29.16,5.87s4.29,1.51,5.87-.16Z"/>
              </g>
            </g>
            <g>
              <rect class="cls-12" x="233.88" y="478.55" width="4.6" height="11.62"/>
              <rect class="cls-12" x="223.18" y="483.88" width="4.6" height="6.29"/>
              <rect class="cls-12" x="244.58" y="475.07" width="4.6" height="15.11"/>
              <rect class="cls-12" x="255.29" y="470.42" width="4.6" height="19.75"/>
            </g>
          </g>
        </g>
        <g>
          <rect class="cls-18" x="149.06" y="503.84" width="61.96" height="61.96"/>
          <g>
            <g>
              <polyline class="cls-5" points="185.95 523.23 185.95 530.23 171.96 530.23 171.96 516.23 178.95 516.23"/>
              <polyline class="cls-5" points="188.65 514.29 179.24 523.54 176.35 520.59"/>
            </g>
            <g>
              <polyline class="cls-5" points="185.95 547.83 185.95 554.83 171.96 554.83 171.96 540.83 178.95 540.83"/>
              <polyline class="cls-5" points="188.65 538.89 179.24 548.14 176.35 545.18"/>
            </g>
          </g>
        </g>
        <g>
          <rect class="cls-19" x="86.64" y="565.79" width="61.96" height="61.96"/>
          <g>
            <polyline class="cls-7" points="112.12 584.51 100.2 584.51 100.2 607.98 129.82 607.98"/>
            <g>
              <circle class="cls-8" cx="124.75" cy="591.9" r="9.74"/>
              <line class="cls-8" x1="131.64" y1="598.79" x2="137.78" y2="604.93"/>
            </g>
            <line class="cls-3" x1="117.58" y1="607.98" x2="117.58" y2="617.34"/>
          </g>
        </g>
        <g>
          <rect class="cls-18" x="210.52" y="565.79" width="61.96" height="61.96"/>
          <g>
            <g>
              <path class="cls-12" d="M242.56,580.07v3.78h3.78l-3.78-3.78Z"/>
              <path class="cls-12" d="M240.28,597.14c0-1.98,1.61-3.59,3.59-3.59h5.03v-7.59h-7.39c-.58,0-1.06-.47-1.06-1.06v-7.39h-15.83c-.58,0-1.06.47-1.06,1.06v29.19c0,.58.47,1.06,1.06,1.06h15.66v-11.69ZM228.84,581.74h8.44c.58,0,1.06.47,1.06,1.06s-.47,1.06-1.06,1.06h-8.44c-.58,0-1.06-.47-1.06-1.06s.47-1.06,1.06-1.06ZM228.84,585.96h8.44c.58,0,1.06.47,1.06,1.06s-.47,1.06-1.06,1.06h-8.44c-.58,0-1.06-.47-1.06-1.06s.47-1.06,1.06-1.06ZM228.84,590.18h11.98c.58,0,1.06.47,1.06,1.06s-.47,1.06-1.06,1.06h-11.98c-.58,0-1.06-.47-1.06-1.06s.47-1.06,1.06-1.06ZM237.57,600.73h-8.73c-.58,0-1.06-.47-1.06-1.06s.47-1.06,1.06-1.06h8.73c.58,0,1.06.47,1.06,1.06s-.47,1.06-1.06,1.06ZM237.81,596.51h-8.97c-.58,0-1.06-.47-1.06-1.06s.47-1.06,1.06-1.06h8.97c.58,0,1.06.47,1.06,1.06s-.47,1.06-1.06,1.06Z"/>
            </g>
            <g>
              <rect class="cls-12" x="242.66" y="595.39" width="16.78" height="20.64" rx="2.5" ry="2.5"/>
              <g>
                <line class="cls-4" x1="246.46" y1="599.86" x2="255.64" y2="599.86"/>
                <g>
                  <line class="cls-1" x1="246.46" y1="604.94" x2="246.67" y2="604.94"/>
                  <line class="cls-6" x1="250.92" y1="604.94" x2="253.3" y2="604.94"/>
                  <line class="cls-1" x1="255.43" y1="604.94" x2="255.64" y2="604.94"/>
                </g>
                <g>
                  <line class="cls-1" x1="246.46" y1="608.55" x2="246.67" y2="608.55"/>
                  <line class="cls-6" x1="250.92" y1="608.55" x2="253.3" y2="608.55"/>
                  <line class="cls-1" x1="255.43" y1="608.55" x2="255.64" y2="608.55"/>
                </g>
                <g>
                  <line class="cls-1" x1="246.46" y1="612.17" x2="246.67" y2="612.17"/>
                  <line class="cls-6" x1="250.92" y1="612.17" x2="253.3" y2="612.17"/>
                  <line class="cls-1" x1="255.43" y1="612.17" x2="255.64" y2="612.17"/>
                </g>
              </g>
            </g>
          </g>
        </g>
        <g>
          <rect class="cls-19" x="147.97" y="627.75" width="61.96" height="61.96"/>
          <g>
            <g>
              <path class="cls-12" d="M173.39,652.1v4.53c0,.58.47,1.04,1.04,1.04h4.49c-2.65-.81-4.74-2.92-5.53-5.58Z"/>
              <circle class="cls-12" cx="184.79" cy="646.31" r="11.08"/>
            </g>
            <path class="cls-12" d="M174.17,661.11c-.45-.72-1.24-1.19-2.15-1.19h-.48c-.12,0-.23.02-.35.04-.32-.79-1.09-1.34-1.99-1.34h-.41c-.25,0-.48.05-.7.13v-2.12c0-1.07-.87-1.93-1.93-1.93h-.37c-1.07,0-1.93.87-1.93,1.93v8.11c1.07-.04,2.36.53,2.55,1.92.1.75.1,1.42.02,2.02l-.51-1.83c-.25-.91-1.15-1.45-2.06-1.28h0c-.05,0-.11.01-.16.03l-.33.09c-.96.27-1.52,1.26-1.26,2.23l1.8,6.46c.05.18.13.33.22.48.36,1,1.06,1.72,1.97,2.21v2.24c0,1.62,1.31,2.94,2.94,2.94h2.93c1.62,0,2.94-1.31,2.94-2.94v-1.58c0-.24-.02-.47-.06-.69,1.34-.73,2.19-1.98,2.19-3.85v-9.19c0-1.58-1.27-2.86-2.85-2.88Z"/>
          </g>
        </g>
        <g>
          <rect class="cls-18" x="87.1" y="441.88" width="61.96" height="61.96"/>
          <g>
            <path class="cls-12" d="M121.98,457.68v4h4l-4-4Z"/>
            <path class="cls-12" d="M117.22,487.4c.03-1.19.99-2.15,2.19-2.18.15-.47.18-.85.06-1.1-.17-.37-.66-.49-.66-.49l-.82-.2-.08-.85c-.31-4.66.63-8.19,2.78-10.49,1.73-1.84,3.76-2.37,4.85-2.52.73-1.29,1.71-1.5,2.28-1.5.29,0,.58.06.88.16v-4.31h-7.81c-.62,0-1.12-.5-1.12-1.12v-7.81h-16.75c-.62,0-1.12.5-1.12,1.12v30.89c0,.62.5,1.12,1.12,1.12h12.69c.39-.41.92-.68,1.52-.7ZM107.47,459.45h8.93c.62,0,1.12.5,1.12,1.12s-.5,1.12-1.12,1.12h-8.93c-.62,0-1.12-.5-1.12-1.12s.5-1.12,1.12-1.12ZM107.47,463.92h8.93c.62,0,1.12.5,1.12,1.12s-.5,1.12-1.12,1.12h-8.93c-.62,0-1.12-.5-1.12-1.12s.5-1.12,1.12-1.12ZM107.47,468.38h12.68c.62,0,1.12.5,1.12,1.12s-.5,1.12-1.12,1.12h-12.68c-.62,0-1.12-.5-1.12-1.12s.5-1.12,1.12-1.12ZM107.47,472.85h9.49c.62,0,1.12.5,1.12,1.12s-.5,1.12-1.12,1.12h-9.49c-.62,0-1.12-.5-1.12-1.12s.5-1.12,1.12-1.12ZM106.36,478.43c0-.62.5-1.12,1.12-1.12h7.65c.62,0,1.12.5,1.12,1.12s-.5,1.12-1.12,1.12h-7.65c-.62,0-1.12-.5-1.12-1.12Z"/>
            <path class="cls-13" d="M132.67,488.55h-1.04v-1.09c0-.6-.49-1.09-1.09-1.09h-.7c1.58-4.55-3.47-6.47-3.78-8.54-.5-3.34,4.1-2.12,3.69.32-.04.27,1.85.93,2.5-.21l.39-.69c.31-.54.21-1.2-.25-1.63l-3.79-3.6c-.33-.31-.37-.8-.11-1.17l.46-.65c.15-.21.1-.49-.11-.63-.59-.4-1.78-.87-2.53,1.08,0,0-8.02-.1-7.24,11.84,0,0,2.76.56,1.12,3.87h-.71c-.6,0-1.09.49-1.09,1.09v1.09h-1.05c-.6,0-1.09.49-1.09,1.09v1.09h17.53v-1.09c0-.6-.49-1.09-1.09-1.09Z"/>
          </g>
        </g>
        <g>
          <rect class="cls-19" x="149.06" y="379.91" width="61.96" height="61.96"/>
          <path class="cls-12" d="M199.34,402.18h.71v-1.02h.39v-1.02h-16.76l-.79-1.16v-3.1l.79-1.16h-.79c0-1.2-.97-2.17-2.17-2.17h-.38v-5.03h-.62v5.03h-.38c-1.2,0-2.17.97-2.17,2.17h-.79l.79,1.16v3.1l-.79,1.16h-16.76v1.02h.39v1.02h.71v8.77h-1.1v1.08h.39v1.08h.71v12.37h38.61v-12.37h.71v-1.08h.39v-1.08h-1.1v-8.77ZM170.69,424.35h-5.48v-8.4h5.48v8.4ZM170.58,412.38h-5.25v-7.27h5.25v7.27ZM178.56,401.78c0-.79.64-1.43,1.43-1.43h.09c.79,0,1.43.64,1.43,1.43v2h-2.95v-2ZM177.92,405.11h4.23v7.27h-4.23v-7.27ZM183.22,424.35h-6.36v-9.99h6.36v9.99ZM194.85,424.35h-5.48v-8.4h5.48v8.4ZM194.74,412.38h-5.25v-7.27h5.25v7.27Z"/>
        </g>
      </g>
    </g>
  </g>
</svg>